<svg width="28" height="28" viewBox="0 0 28 28" fill="none" xmlns="http://www.w3.org/2000/svg">
<path d="M7.87499 1.75C7.64293 1.75 7.42037 1.84219 7.25627 2.00628C7.09218 2.17038 6.99999 2.39294 6.99999 2.625C6.99999 2.85706 7.09218 3.07962 7.25627 3.24372C7.42037 3.40781 7.64293 3.5 7.87499 3.5H23.2627L2.00636 24.7564C1.84698 24.9214 1.75878 25.1424 1.76078 25.3719C1.76277 25.6013 1.85479 25.8207 2.01702 25.983C2.17926 26.1452 2.39872 26.2372 2.62814 26.2392C2.85756 26.2412 3.07859 26.153 3.24362 25.9936L24.5 4.73725V20.125C24.5 20.3571 24.5922 20.5796 24.7563 20.7437C24.9204 20.9078 25.1429 21 25.375 21C25.6071 21 25.8296 20.9078 25.9937 20.7437C26.1578 20.5796 26.25 20.3571 26.25 20.125V2.625C26.25 2.39294 26.1578 2.17038 25.9937 2.00628C25.8296 1.84219 25.6071 1.75 25.375 1.75H7.87499Z" fill="#303749"/>
</svg>
