<svg width="32" height="32" viewBox="0 0 32 32" fill="none" xmlns="http://www.w3.org/2000/svg">
  <path
    d="M31.6953 4.6534C31.6954 4.43868 31.6544 4.22605 31.5748 4.02767C31.4952 3.82928 31.3785 3.64902 31.2313 3.49718C31.0841 3.34535 30.9094 3.22491 30.7171 3.14277C30.5248 3.06062 30.3187 3.01836 30.1106 3.01841H9.50866C9.29963 3.01693 9.09239 3.05813 8.89886 3.13964C8.70533 3.22114 8.52934 3.34133 8.38102 3.4933C8.23271 3.64527 8.115 3.826 8.03467 4.0251C7.95435 4.22419 7.913 4.43771 7.913 4.65337C7.913 4.86902 7.95435 5.08254 8.03467 5.28164C8.115 5.48073 8.23271 5.66147 8.38102 5.81343C8.52934 5.9654 8.70533 6.08559 8.89886 6.1671C9.09239 6.2486 9.29963 6.2898 9.50866 6.28832H30.1106C30.3187 6.28837 30.5248 6.24612 30.7171 6.16397C30.9094 6.08183 31.0841 5.9614 31.2313 5.80958C31.3784 5.65775 31.4952 5.4775 31.5748 5.27912C31.6544 5.08074 31.6954 4.86812 31.6953 4.6534ZM1.58481 14.4631H30.1106C30.5309 14.4631 30.934 14.6353 31.2312 14.9419C31.5283 15.2485 31.6953 15.6644 31.6953 16.098C31.6953 16.5316 31.5283 16.9474 31.2312 17.254C30.934 17.5606 30.5309 17.7329 30.1106 17.7329H1.58481C1.16452 17.7329 0.761431 17.5606 0.464233 17.254C0.167038 16.9474 7.43866e-05 16.5316 7.43866e-05 16.098C7.43866e-05 15.6644 0.167038 15.2485 0.464233 14.9419C0.761431 14.6353 1.16452 14.4631 1.58481 14.4631ZM15.8477 25.9076H30.1106C30.529 25.9106 30.9293 26.0842 31.2242 26.3904C31.5191 26.6967 31.6845 27.1109 31.6845 27.5426C31.6845 27.9743 31.5191 28.3885 31.2242 28.6947C30.9293 29.001 30.529 29.1746 30.1106 29.1776H15.8477C15.4293 29.1746 15.0289 29.001 14.7341 28.6947C14.4392 28.3885 14.2737 27.9743 14.2737 27.5426C14.2737 27.1109 14.4392 26.6967 14.7341 26.3904C15.0289 26.0842 15.4293 25.9106 15.8477 25.9076Z"
    fill="#303749" />
</svg>